<svg width="19" height="25" viewBox="0 0 19 25" fill="none" xmlns="http://www.w3.org/2000/svg">
<path d="M16.137 2.78223H2.7822C1.55292 2.78223 0.556396 3.77875 0.556396 5.00803V21.3306C0.556396 22.5599 1.55292 23.5564 2.7822 23.5564H16.137C17.3663 23.5564 18.3628 22.5599 18.3628 21.3306V5.00803C18.3628 3.77875 17.3663 2.78223 16.137 2.78223Z" stroke="#387A70" stroke-width="1.1129"/>
<path d="M11.6855 0.556641H7.23387C6.41435 0.556641 5.75 1.22099 5.75 2.04051V2.78245C5.75 3.60197 6.41435 4.26632 7.23387 4.26632H11.6855C12.505 4.26632 13.1694 3.60197 13.1694 2.78245V2.04051C13.1694 1.22099 12.505 0.556641 11.6855 0.556641Z" stroke="#387A70" stroke-width="1.1129"/>
<path d="M4.26611 9.45996H14.6532" stroke="#387A70" stroke-width="1.1129" stroke-linecap="round"/>
<path d="M4.26611 13.1699H14.6532" stroke="#387A70" stroke-width="1.1129" stroke-linecap="round"/>
<path d="M4.26611 16.8789H10.2016" stroke="#387A70" stroke-width="1.1129" stroke-linecap="round"/>
</svg>
