<svg width="23" height="23" viewBox="0 0 23 23" fill="none" xmlns="http://www.w3.org/2000/svg">
<path d="M11.0625 21.5625C16.8615 21.5625 21.5625 16.8615 21.5625 11.0625C21.5625 5.26351 16.8615 0.5625 11.0625 0.5625C5.26351 0.5625 0.5625 5.26351 0.5625 11.0625C0.5625 16.8615 5.26351 21.5625 11.0625 21.5625Z" stroke="#A07F54" stroke-width="1.125"/>
<path d="M11.0625 2.0625L14.0625 11.0625L11.0625 8.0625L8.0625 11.0625L11.0625 2.0625Z" fill="#A07F54"/>
<path opacity="0.4" d="M11.0625 20.0625L8.0625 11.0625L11.0625 14.0625L14.0625 11.0625L11.0625 20.0625Z" fill="#A07F54"/>
<path d="M11.0625 12.5625C11.8909 12.5625 12.5625 11.8909 12.5625 11.0625C12.5625 10.2341 11.8909 9.5625 11.0625 9.5625C10.2341 9.5625 9.5625 10.2341 9.5625 11.0625C9.5625 11.8909 10.2341 12.5625 11.0625 12.5625Z" fill="#A07F54"/>
</svg>
