<svg width="24" height="28" viewBox="0 0 24 28" fill="none" xmlns="http://www.w3.org/2000/svg">
<path d="M22.5469 5.48438H1.42188C0.973144 5.48438 0.609375 5.84814 0.609375 6.29688V25.7969C0.609375 26.2456 0.973144 26.6094 1.42188 26.6094H22.5469C22.9956 26.6094 23.3594 26.2456 23.3594 25.7969V6.29688C23.3594 5.84814 22.9956 5.48438 22.5469 5.48438Z" stroke="#4B2973" stroke-width="1.21875"/>
<path d="M17.6719 0.609375H6.29688C5.84814 0.609375 5.48438 0.973144 5.48438 1.42188V4.67188C5.48438 5.12061 5.84814 5.48438 6.29688 5.48438H17.6719C18.1206 5.48438 18.4844 5.12061 18.4844 4.67188V1.42188C18.4844 0.973144 18.1206 0.609375 17.6719 0.609375Z" stroke="#4B2973" stroke-width="1.21875"/>
<path d="M9.54688 18.4844H6.29688C5.84814 18.4844 5.48438 18.8481 5.48438 19.2969V25.7969C5.48438 26.2456 5.84814 26.6094 6.29688 26.6094H9.54688C9.99561 26.6094 10.3594 26.2456 10.3594 25.7969V19.2969C10.3594 18.8481 9.99561 18.4844 9.54688 18.4844Z" stroke="#4B2973" stroke-width="1.21875"/>
<path d="M17.6719 18.4844H14.4219C13.9731 18.4844 13.6094 18.8481 13.6094 19.2969V25.7969C13.6094 26.2456 13.9731 26.6094 14.4219 26.6094H17.6719C18.1206 26.6094 18.4844 26.2456 18.4844 25.7969V19.2969C18.4844 18.8481 18.1206 18.4844 17.6719 18.4844Z" stroke="#4B2973" stroke-width="1.21875"/>
<path d="M7.10938 10.3594V13.6094" stroke="#4B2973" stroke-width="1.21875" stroke-linecap="round"/>
<path d="M11.9844 10.3594V13.6094" stroke="#4B2973" stroke-width="1.21875" stroke-linecap="round"/>
<path d="M16.8594 10.3594V13.6094" stroke="#4B2973" stroke-width="1.21875" stroke-linecap="round"/>
</svg>
