<svg width="25" height="20" viewBox="0 0 25 20" fill="none" xmlns="http://www.w3.org/2000/svg">
<path d="M9.5113 9.51138C11.9833 9.51138 13.9872 7.50745 13.9872 5.03547C13.9872 2.5635 11.9833 0.55957 9.5113 0.55957C7.03933 0.55957 5.0354 2.5635 5.0354 5.03547C5.0354 7.50745 7.03933 9.51138 9.5113 9.51138Z" stroke="#876920" stroke-width="1.11898"/>
<path d="M0.559448 18.4627C0.559448 13.2408 5.03535 10.2568 9.51125 10.2568C13.9872 10.2568 18.4631 13.2408 18.4631 18.4627" stroke="#876920" stroke-width="1.11898" stroke-linecap="round"/>
<path d="M20.4631 8.27331C22.5231 8.27331 24.193 6.60337 24.193 4.5434C24.193 2.48342 22.5231 0.813477 20.4631 0.813477C18.4031 0.813477 16.7332 2.48342 16.7332 4.5434C16.7332 6.60337 18.4031 8.27331 20.4631 8.27331Z" stroke="#876920" stroke-width="1.11898"/>
</svg>
